<svg width="463" height="92" viewBox="0 0 463 92" fill="none" xmlns="http://www.w3.org/2000/svg" role="img"><title>WheelPro Systems</title>

<g id="lockup">
<g id="wordmark">
<path d="M10.152 67L1.08 27.634H10.368L14.256 48.316L15.984 59.116H16.416L18.252 48.316L22.302 27.634H32.67L36.72 47.614L38.718 59.224H39.096L40.824 47.614L44.496 27.634H53.784L44.712 67H33.156L29.646 48.91L27.702 37.03H27.27L25.272 48.91L21.654 67H10.152ZM56.8958 67V27.634H64.8338V43.294H65.1578C65.9498 41.35 67.1738 39.91 68.8298 38.974C70.4858 38.002 72.3398 37.516 74.3918 37.516C75.8318 37.516 77.1638 37.75 78.3878 38.218C79.6478 38.65 80.7278 39.334 81.6278 40.27C82.5638 41.206 83.2838 42.448 83.7878 43.996C84.3278 45.508 84.5978 47.344 84.5978 49.504V67H76.6598V51.232C76.6598 49.612 76.4618 48.262 76.0658 47.182C75.7058 46.102 75.1298 45.31 74.3378 44.806C73.5458 44.266 72.5018 43.996 71.2058 43.996C69.8378 43.996 68.6858 44.32 67.7498 44.968C66.8138 45.616 66.0938 46.462 65.5898 47.506C65.0858 48.55 64.8338 49.684 64.8338 50.908V67H56.8958ZM102.455 67.54C99.4313 67.54 96.8573 66.928 94.7333 65.704C92.6453 64.48 91.0433 62.752 89.9273 60.52C88.8113 58.288 88.2533 55.696 88.2533 52.744C88.2533 49.612 88.8113 46.912 89.9273 44.644C91.0793 42.376 92.6813 40.63 94.7333 39.406C96.8213 38.146 99.2873 37.516 102.131 37.516C105.443 37.516 108.143 38.236 110.231 39.676C112.355 41.116 113.885 43.096 114.821 45.616C115.757 48.136 116.063 51.016 115.739 54.256H96.0293C96.0293 55.84 96.2813 57.19 96.7853 58.306C97.3253 59.386 98.0813 60.196 99.0533 60.736C100.025 61.276 101.159 61.546 102.455 61.546C103.967 61.546 105.191 61.24 106.127 60.628C107.063 60.016 107.693 59.206 108.017 58.198H115.523C115.235 60.106 114.497 61.762 113.309 63.166C112.121 64.534 110.591 65.614 108.719 66.406C106.883 67.162 104.795 67.54 102.455 67.54ZM96.0293 50.098L95.3273 49.342H108.719L107.963 50.098C108.035 48.586 107.819 47.362 107.315 46.426C106.847 45.454 106.163 44.716 105.263 44.212C104.399 43.708 103.355 43.456 102.131 43.456C100.907 43.456 99.8273 43.726 98.8913 44.266C97.9913 44.77 97.2893 45.526 96.7853 46.534C96.3173 47.506 96.0653 48.694 96.0293 50.098ZM132.535 67.54C129.511 67.54 126.937 66.928 124.813 65.704C122.725 64.48 121.123 62.752 120.007 60.52C118.891 58.288 118.333 55.696 118.333 52.744C118.333 49.612 118.891 46.912 120.007 44.644C121.159 42.376 122.761 40.63 124.813 39.406C126.901 38.146 129.367 37.516 132.211 37.516C135.523 37.516 138.223 38.236 140.311 39.676C142.435 41.116 143.965 43.096 144.901 45.616C145.837 48.136 146.143 51.016 145.819 54.256H126.109C126.109 55.84 126.361 57.19 126.865 58.306C127.405 59.386 128.161 60.196 129.133 60.736C130.105 61.276 131.239 61.546 132.535 61.546C134.047 61.546 135.271 61.24 136.207 60.628C137.143 60.016 137.773 59.206 138.097 58.198H145.603C145.315 60.106 144.577 61.762 143.389 63.166C142.201 64.534 140.671 65.614 138.799 66.406C136.963 67.162 134.875 67.54 132.535 67.54ZM126.109 50.098L125.407 49.342H138.799L138.043 50.098C138.115 48.586 137.899 47.362 137.395 46.426C136.927 45.454 136.243 44.716 135.343 44.212C134.479 43.708 133.435 43.456 132.211 43.456C130.987 43.456 129.907 43.726 128.971 44.266C128.071 44.77 127.369 45.526 126.865 46.534C126.397 47.506 126.145 48.694 126.109 50.098ZM149.561 67V27.634H157.499V67H149.561ZM163.3 67V27.634H179.392C182.704 27.634 185.458 28.174 187.654 29.254C189.85 30.298 191.488 31.792 192.568 33.736C193.684 35.644 194.242 37.912 194.242 40.54C194.242 43.312 193.63 45.67 192.406 47.614C191.182 49.558 189.454 51.052 187.222 52.096C184.99 53.104 182.38 53.608 179.392 53.608H170.968V47.074H178.69C181.102 47.074 182.866 46.48 183.982 45.292C185.134 44.104 185.71 42.61 185.71 40.81C185.71 38.722 185.062 37.192 183.766 36.22C182.506 35.248 180.814 34.762 178.69 34.762H170.644L171.724 33.736V67H163.3ZM197.644 67V38.056H204.826L205.15 42.7H205.42C206.068 40.828 207.094 39.532 208.498 38.812C209.938 38.056 211.576 37.678 213.412 37.678C213.736 37.678 214.024 37.678 214.276 37.678C214.528 37.678 214.78 37.678 215.032 37.678V45.13C214.852 45.13 214.6 45.13 214.276 45.13C213.952 45.13 213.61 45.13 213.25 45.13C211.486 45.13 210.046 45.4 208.93 45.94C207.814 46.444 206.986 47.2 206.446 48.208C205.906 49.216 205.618 50.44 205.582 51.88V67H197.644ZM230.452 67.486C228.256 67.486 226.276 67.162 224.512 66.514C222.748 65.83 221.218 64.84 219.922 63.544C218.626 62.248 217.636 60.682 216.952 58.846C216.268 56.974 215.926 54.868 215.926 52.528C215.926 49.54 216.502 46.93 217.654 44.698C218.806 42.43 220.462 40.666 222.622 39.406C224.782 38.146 227.392 37.516 230.452 37.516C232.612 37.516 234.574 37.858 236.338 38.542C238.102 39.226 239.614 40.216 240.874 41.512C242.17 42.808 243.16 44.374 243.844 46.21C244.564 48.046 244.924 50.152 244.924 52.528C244.924 55.48 244.348 58.09 243.196 60.358C242.044 62.59 240.388 64.336 238.228 65.596C236.104 66.856 233.512 67.486 230.452 67.486ZM230.398 61.06C231.694 61.06 232.828 60.754 233.8 60.142C234.808 59.494 235.564 58.54 236.068 57.28C236.608 56.02 236.878 54.436 236.878 52.528C236.878 51.088 236.734 49.846 236.446 48.802C236.158 47.722 235.726 46.822 235.15 46.102C234.574 45.382 233.89 44.86 233.098 44.536C232.306 44.176 231.424 43.996 230.452 43.996C229.156 43.996 228.004 44.302 226.996 44.914C226.024 45.526 225.268 46.462 224.728 47.722C224.188 48.982 223.918 50.584 223.918 52.528C223.918 53.968 224.062 55.228 224.35 56.308C224.674 57.352 225.124 58.234 225.7 58.954C226.276 59.638 226.96 60.16 227.752 60.52C228.544 60.88 229.426 61.06 230.398 61.06ZM274.079 67.432C270.695 67.432 267.905 66.892 265.709 65.812C263.513 64.732 261.875 63.238 260.795 61.33C259.751 59.422 259.193 57.244 259.121 54.796H262.631C262.703 56.812 263.153 58.576 263.981 60.088C264.809 61.564 266.051 62.698 267.707 63.49C269.363 64.282 271.487 64.678 274.079 64.678C276.311 64.678 278.255 64.408 279.911 63.868C281.603 63.292 282.899 62.428 283.799 61.276C284.735 60.124 285.203 58.666 285.203 56.902C285.203 55.534 284.987 54.382 284.555 53.446C284.159 52.474 283.493 51.664 282.557 51.016C281.621 50.368 280.415 49.828 278.939 49.396C277.499 48.964 275.735 48.55 273.647 48.154C271.415 47.758 269.453 47.308 267.761 46.804C266.069 46.264 264.647 45.616 263.495 44.86C262.379 44.068 261.533 43.096 260.957 41.944C260.381 40.756 260.093 39.334 260.093 37.678C260.093 35.554 260.633 33.718 261.713 32.17C262.793 30.586 264.341 29.362 266.357 28.498C268.409 27.634 270.857 27.202 273.701 27.202C276.653 27.202 279.119 27.67 281.099 28.606C283.115 29.542 284.663 30.856 285.743 32.548C286.823 34.24 287.363 36.238 287.363 38.542H283.961C283.889 36.67 283.421 35.104 282.557 33.844C281.693 32.548 280.505 31.576 278.993 30.928C277.481 30.28 275.645 29.956 273.485 29.956C271.361 29.956 269.561 30.262 268.085 30.874C266.609 31.45 265.475 32.278 264.683 33.358C263.927 34.438 263.549 35.734 263.549 37.246C263.549 38.902 263.927 40.216 264.683 41.188C265.439 42.16 266.663 42.934 268.355 43.51C270.083 44.05 272.351 44.59 275.159 45.13C276.995 45.418 278.723 45.796 280.343 46.264C281.999 46.732 283.439 47.38 284.663 48.208C285.923 49 286.913 50.08 287.633 51.448C288.353 52.816 288.713 54.58 288.713 56.74C288.713 58.864 288.155 60.736 287.039 62.356C285.923 63.976 284.267 65.236 282.071 66.136C279.911 67 277.247 67.432 274.079 67.432ZM292.744 76.018V73.318H295.444C296.38 73.318 297.154 73.192 297.766 72.94C298.414 72.688 298.954 72.292 299.386 71.752C299.854 71.212 300.232 70.528 300.52 69.7L302.572 64.516V65.866L291.016 38.866H294.526L300.844 54.526L303.706 62.032H303.976L306.676 54.526L312.616 38.866H315.964L303.436 70.618C302.932 71.878 302.338 72.904 301.654 73.696C301.006 74.488 300.214 75.064 299.278 75.424C298.342 75.82 297.208 76.018 295.876 76.018H292.744ZM329.455 67.54C327.763 67.54 326.233 67.342 324.865 66.946C323.497 66.514 322.327 65.92 321.355 65.164C320.383 64.408 319.627 63.49 319.087 62.41C318.583 61.294 318.295 60.088 318.223 58.792H321.409C321.517 60.196 321.913 61.366 322.597 62.302C323.281 63.202 324.217 63.886 325.405 64.354C326.629 64.786 328.015 65.002 329.563 65.002C331.975 65.002 333.829 64.534 335.125 63.598C336.421 62.662 337.069 61.348 337.069 59.656C337.069 58.432 336.799 57.46 336.259 56.74C335.755 56.02 334.927 55.462 333.775 55.066C332.659 54.67 331.183 54.346 329.347 54.094C327.115 53.734 325.225 53.284 323.677 52.744C322.129 52.168 320.959 51.376 320.167 50.368C319.411 49.36 319.033 48.01 319.033 46.318C319.033 44.698 319.465 43.312 320.329 42.16C321.193 40.972 322.399 40.036 323.947 39.352C325.495 38.668 327.313 38.326 329.401 38.326C331.525 38.326 333.343 38.668 334.855 39.352C336.403 40.036 337.591 41.008 338.419 42.268C339.283 43.528 339.751 45.04 339.823 46.804H336.691C336.619 45.364 336.259 44.212 335.611 43.348C334.999 42.484 334.153 41.854 333.073 41.458C332.029 41.062 330.805 40.864 329.401 40.864C327.133 40.864 325.369 41.332 324.109 42.268C322.849 43.204 322.219 44.446 322.219 45.994C322.219 47.11 322.507 48.028 323.083 48.748C323.659 49.432 324.541 49.972 325.729 50.368C326.917 50.728 328.429 51.052 330.265 51.34C332.281 51.628 334.045 52.042 335.557 52.582C337.105 53.122 338.293 53.932 339.121 55.012C339.949 56.056 340.363 57.514 340.363 59.386C340.363 61.114 339.913 62.59 339.013 63.814C338.113 65.038 336.835 65.974 335.179 66.622C333.559 67.234 331.651 67.54 329.455 67.54ZM353.917 67C352.117 67 350.731 66.568 349.759 65.704C348.787 64.804 348.301 63.346 348.301 61.33V41.512H342.631V38.866H348.301V30.226L351.433 29.686V38.866H358.291V41.512H351.487V60.898C351.487 62.05 351.739 62.878 352.243 63.382C352.783 63.886 353.593 64.138 354.673 64.138H358.345V67H353.917ZM372.553 67.486C369.961 67.486 367.729 66.892 365.857 65.704C364.021 64.516 362.617 62.842 361.645 60.682C360.673 58.486 360.187 55.93 360.187 53.014C360.187 50.062 360.655 47.506 361.591 45.346C362.563 43.15 363.949 41.458 365.749 40.27C367.585 39.046 369.817 38.434 372.445 38.434C375.181 38.434 377.449 39.064 379.249 40.324C381.049 41.584 382.345 43.33 383.137 45.562C383.965 47.794 384.289 50.386 384.109 53.338H363.265C363.337 55.93 363.751 58.09 364.507 59.818C365.263 61.51 366.325 62.788 367.693 63.652C369.097 64.48 370.717 64.894 372.553 64.894C374.749 64.894 376.549 64.372 377.953 63.328C379.393 62.284 380.347 60.898 380.815 59.17H383.893C383.569 60.934 382.867 62.446 381.787 63.706C380.743 64.93 379.429 65.866 377.845 66.514C376.261 67.162 374.497 67.486 372.553 67.486ZM363.319 51.394L362.941 50.8H381.409L381.031 51.502C381.067 49.018 380.725 47.02 380.005 45.508C379.285 43.96 378.277 42.826 376.981 42.106C375.685 41.386 374.173 41.026 372.445 41.026C370.681 41.026 369.133 41.422 367.801 42.214C366.469 42.97 365.407 44.122 364.615 45.67C363.859 47.182 363.427 49.09 363.319 51.394ZM389.261 67V38.866H392.231L392.393 44.968H392.609C393.509 42.808 394.859 41.188 396.659 40.108C398.459 38.992 400.457 38.434 402.653 38.434C404.849 38.434 406.775 38.974 408.431 40.054C410.123 41.134 411.311 42.916 411.995 45.4H412.427C413.327 43.096 414.713 41.368 416.585 40.216C418.457 39.028 420.563 38.434 422.903 38.434C424.811 38.434 426.521 38.848 428.033 39.676C429.545 40.468 430.715 41.746 431.543 43.51C432.407 45.274 432.839 47.614 432.839 50.53V67H429.707V51.124C429.707 48.856 429.419 46.984 428.843 45.508C428.303 44.032 427.457 42.952 426.305 42.268C425.189 41.548 423.749 41.188 421.985 41.188C420.113 41.188 418.475 41.656 417.071 42.592C415.667 43.528 414.569 44.806 413.777 46.426C413.021 48.01 412.643 49.846 412.643 51.934V67H409.457V51.124C409.457 48.856 409.169 46.984 408.593 45.508C408.017 44.032 407.171 42.952 406.055 42.268C404.939 41.548 403.517 41.188 401.789 41.188C399.881 41.188 398.225 41.656 396.821 42.592C395.417 43.528 394.319 44.806 393.527 46.426C392.771 48.01 392.393 49.846 392.393 51.934V67H389.261ZM448.93 67.54C447.238 67.54 445.708 67.342 444.34 66.946C442.972 66.514 441.802 65.92 440.83 65.164C439.858 64.408 439.102 63.49 438.562 62.41C438.058 61.294 437.77 60.088 437.698 58.792H440.884C440.992 60.196 441.388 61.366 442.072 62.302C442.756 63.202 443.692 63.886 444.88 64.354C446.104 64.786 447.49 65.002 449.038 65.002C451.45 65.002 453.304 64.534 454.6 63.598C455.896 62.662 456.544 61.348 456.544 59.656C456.544 58.432 456.274 57.46 455.734 56.74C455.23 56.02 454.402 55.462 453.25 55.066C452.134 54.67 450.658 54.346 448.822 54.094C446.59 53.734 444.7 53.284 443.152 52.744C441.604 52.168 440.434 51.376 439.642 50.368C438.886 49.36 438.508 48.01 438.508 46.318C438.508 44.698 438.94 43.312 439.804 42.16C440.668 40.972 441.874 40.036 443.422 39.352C444.97 38.668 446.788 38.326 448.876 38.326C451 38.326 452.818 38.668 454.33 39.352C455.878 40.036 457.066 41.008 457.894 42.268C458.758 43.528 459.226 45.04 459.298 46.804H456.166C456.094 45.364 455.734 44.212 455.086 43.348C454.474 42.484 453.628 41.854 452.548 41.458C451.504 41.062 450.28 40.864 448.876 40.864C446.608 40.864 444.844 41.332 443.584 42.268C442.324 43.204 441.694 44.446 441.694 45.994C441.694 47.11 441.982 48.028 442.558 48.748C443.134 49.432 444.016 49.972 445.204 50.368C446.392 50.728 447.904 51.052 449.74 51.34C451.756 51.628 453.52 52.042 455.032 52.582C456.58 53.122 457.768 53.932 458.596 55.012C459.424 56.056 459.838 57.514 459.838 59.386C459.838 61.114 459.388 62.59 458.488 63.814C457.588 65.038 456.31 65.974 454.654 66.622C453.034 67.234 451.126 67.54 448.93 67.54Z" fill="#2f5bff"/>
</g>
</g>

</svg>
